<?xml version="1.0" encoding="UTF-8"?>
<svg width="60px" height="52px" viewBox="0 0 60 52" version="1.1" xmlns="http://www.w3.org/2000/svg" xmlns:xlink="http://www.w3.org/1999/xlink">
    <!-- Generator: Sketch 52.1 (67048) - http://www.bohemiancoding.com/sketch -->
    <title>Group 8</title>
    <desc>Created with Sketch.</desc>
    <g id="BFM-Dashboard" stroke="none" stroke-width="1" fill="none" fill-rule="evenodd">
        <g id="Dashboard" transform="translate(-824.000000, -200.000000)">
            <g id="Group-8" transform="translate(824.000000, 201.000000)">
                <polygon id="Stroke-1" stroke="#DCDCE1" stroke-width="1.8" stroke-linecap="round" stroke-linejoin="round" points="5.4664723 26.5962099 54.664723 26.5962099 54.664723 0.357142857 5.4664723 0.357142857"></polygon>
                <path d="M1.09329446,0.0728862974 L1.09329446,49.271137" id="Stroke-3" stroke="#DCDCE1" stroke-width="1.8" stroke-linecap="round" stroke-linejoin="round"></path>
                <path d="M59.0381438,0.0728862974 L59.0381438,49.271137" id="Stroke-4" stroke="#DCDCE1" stroke-width="1.8" stroke-linecap="round" stroke-linejoin="round"></path>
                <path d="M22.3079446,11.5764091 C21.7564383,10.7892371 20.7712585,10.1186832 19.550413,10.1186832 C18.7425899,10.1186832 18.3502187,10.4345238 18.3502187,10.8864189 C18.3502187,12.4024538 24.5103256,11.694242 24.5103256,15.7880224 C24.5103256,17.678207 23.1522109,19.194242 21.0676628,19.7056608 L21.0676628,21.6553693 L18.4303936,21.6553693 L18.4303936,19.8247085 C16.2438047,19.587828 15.0436103,18.603863 14.35362,17.5215015 L16.6580418,15.3555637 C17.38569,16.3601798 18.369655,16.8315112 19.5321914,16.8315112 C20.5149417,16.8315112 21.0275753,16.5168853 21.0275753,15.9265063 C21.0275753,14.3327259 14.8662536,15.0798105 14.8662536,10.965379 C14.8662536,9.05697279 16.3033285,7.59924684 18.4303936,7.18622449 L18.4303936,5.29603984 L21.0676628,5.29603984 L21.0676628,7.20566084 C22.5836978,7.50085034 23.7826774,8.30867347 24.5103256,9.37159864 L22.3079446,11.5764091 Z" id="Fill-5" fill="#2BB9FF"></path>
                <path d="M33.3476676,11.5764091 C32.7961613,10.7892371 31.8109815,10.1186832 30.5901361,10.1186832 C29.7823129,10.1186832 29.3899417,10.4345238 29.3899417,10.8864189 C29.3899417,12.4024538 35.5500486,11.694242 35.5500486,15.7880224 C35.5500486,17.678207 34.1919339,19.194242 32.1073858,19.7056608 L32.1073858,21.6553693 L29.4701166,21.6553693 L29.4701166,19.8247085 C27.2835277,19.587828 26.0833333,18.603863 25.3933431,17.5215015 L27.6977648,15.3555637 C28.425413,16.3601798 29.409378,16.8315112 30.5719145,16.8315112 C31.5546647,16.8315112 32.0672983,16.5168853 32.0672983,15.9265063 C32.0672983,14.3327259 25.9059767,15.0798105 25.9059767,10.965379 C25.9059767,9.05697279 27.3430515,7.59924684 29.4701166,7.18622449 L29.4701166,5.29603984 L32.1073858,5.29603984 L32.1073858,7.20566084 C33.6234208,7.50085034 34.8224004,8.30867347 35.5500486,9.37159864 L33.3476676,11.5764091 Z" id="Fill-6" fill="#2BB9FF"></path>
                <path d="M44.3873907,11.5764091 C43.8358844,10.7892371 42.8507046,10.1186832 41.6298591,10.1186832 C40.822036,10.1186832 40.4296647,10.4345238 40.4296647,10.8864189 C40.4296647,12.4024538 46.5897716,11.694242 46.5897716,15.7880224 C46.5897716,17.678207 45.2316569,19.194242 43.1471088,19.7056608 L43.1471088,21.6553693 L40.5098397,21.6553693 L40.5098397,19.8247085 C38.3232507,19.587828 37.1230564,18.603863 36.4330661,17.5215015 L38.7374879,15.3555637 C39.4651361,16.3601798 40.4491011,16.8315112 41.6116375,16.8315112 C42.5943878,16.8315112 43.1070214,16.5168853 43.1070214,15.9265063 C43.1070214,14.3327259 36.9456997,15.0798105 36.9456997,10.965379 C36.9456997,9.05697279 38.3827745,7.59924684 40.5098397,7.18622449 L40.5098397,5.29603984 L43.1471088,5.29603984 L43.1471088,7.20566084 C44.6631438,7.50085034 45.8621234,8.30867347 46.5897716,9.37159864 L44.3873907,11.5764091 Z" id="Fill-7" fill="#2BB9FF"></path>
            </g>
        </g>
    </g>
</svg>