<?xml version="1.0" encoding="UTF-8"?>
<svg width="18px" height="21px" viewBox="0 0 18 21" version="1.1" xmlns="http://www.w3.org/2000/svg" xmlns:xlink="http://www.w3.org/1999/xlink">
    <!-- Generator: Sketch 51.3 (57544) - http://www.bohemiancoding.com/sketch -->
    <title>Combined Shape</title>
    <desc>Created with Sketch.</desc>
    <defs></defs>
    <g id="Page-1" stroke="none" stroke-width="1" fill="none" fill-rule="evenodd">
        <g id="bfm-home" transform="translate(-731.000000, -1709.000000)" fill="#000000">
            <path d="M733.059744,1725.8001 C734.196723,1725.8001 735.119488,1726.74088 735.119488,1727.90005 C735.119488,1729.05922 734.196723,1730 733.059744,1730 C731.922765,1730 731,1729.05922 731,1727.90005 C731,1726.74088 731.922765,1725.8001 733.059744,1725.8001 Z M741.29872,1713.1999 C740.161741,1713.1999 739.238976,1712.25912 739.238976,1711.09995 C739.238976,1709.94078 740.161741,1709 741.29872,1709 C742.435699,1709 743.358464,1709.94078 743.358464,1711.09995 C743.358464,1712.25912 742.435699,1713.1999 741.29872,1713.1999 Z M744.17608,1714.85938 L749,1717.52736 L748.016472,1719.37217 L743.032922,1716.64223 C742.984518,1716.62123 742.944353,1716.60653 742.896978,1716.58554 L741.283169,1720.81378 L738.143089,1729.31962 L736.215169,1728.57939 L738.801177,1721.57711 L737.863994,1721.31777 L736.573564,1724.23669 L734.695078,1723.37257 L735.850594,1720.76233 L735.840295,1720.75918 L737.694065,1716.14035 L737.705394,1716.0994 C736.843391,1716.63173 736.171914,1717.40976 735.747607,1718.35894 L735.232671,1719.51391 L733.358304,1718.64558 L733.87324,1717.49061 C734.473655,1716.1435 735.433496,1715.03787 736.648745,1714.29449 C737.723931,1713.60991 738.912404,1713.38627 740.161638,1713.64036 L741.947436,1714.06875 C742.605525,1714.15905 743.243015,1714.44359 743.858879,1714.71868 L744.17608,1714.85938 Z" id="Combined-Shape"></path>
        </g>
    </g>
</svg>