<?xml version="1.0" encoding="UTF-8"?>
<svg width="81px" height="78px" viewBox="0 0 81 78" version="1.1" xmlns="http://www.w3.org/2000/svg" xmlns:xlink="http://www.w3.org/1999/xlink">
    <!-- Generator: Sketch 52.1 (67048) - http://www.bohemiancoding.com/sketch -->
    <title>other</title>
    <desc>Created with Sketch.</desc>
    <g id="Page-1" stroke="none" stroke-width="1" fill="none" fill-rule="evenodd">
        <g id="icons" transform="translate(-529.000000, -465.000000)" fill="#020303">
            <g id="other" transform="translate(529.000000, 465.000000)">
                <path d="M53.2031,58.6135 L56.8471,50.9675 L66.0711,50.9675 C60.7751,59.8765 48.7071,71.8105 41.3291,77.4825 C41.0271,77.7145 40.6641,77.8315 40.3021,77.8315 C39.9791,77.8315 39.6571,77.7375 39.3711,77.5525 C30.9461,71.9625 18.2131,60.3665 12.9741,50.9675 L21.8331,50.9675 C23.4141,51.3275 24.9191,50.5745 25.8661,49.3155 L26.6311,48.2915 L29.3981,52.4415 C30.3751,53.9095 31.9241,54.6845 33.6361,54.6845 C35.7281,54.6075 37.3001,53.4925 38.0961,51.8975 L40.6981,46.6965 L43.8541,57.7515 C44.4221,59.7385 46.1781,61.2935 48.6971,61.4005 C50.6141,61.4005 52.3401,60.3365 53.2031,58.6135 Z M7.1347,40.8938 C5.3017,38.0828 3.3637,31.2188 3.3637,25.0208 C3.3637,13.1698 9.9627,1.1678 22.5717,1.1678 C29.3177,1.1678 36.7597,5.3318 40.3017,14.4588 C43.8987,5.1848 51.5307,0.9568 58.4587,0.9568 C67.7937,0.9568 77.2397,8.5398 77.2397,23.0298 C77.2397,29.6308 74.6677,37.4318 72.3097,40.8938 L53.7337,40.8938 C52.3167,41.2528 51.0077,41.8338 50.0707,42.8338 L46.8257,31.4708 C46.2617,29.4968 44.5127,27.9318 41.9847,27.8208 C40.0597,27.8208 38.3377,28.8888 37.4777,30.6048 L32.9617,39.6308 L31.0607,36.7808 C30.1607,35.4228 28.6257,34.5868 26.9167,34.5378 C25.3017,34.5378 23.7777,35.2918 22.8407,36.5518 L19.3147,40.8938 L7.1347,40.8938 Z M78.9189,44.2522 C79.8419,44.2522 80.5979,45.0042 80.5979,45.9312 C80.5979,46.8572 79.8419,47.6092 78.9189,47.6092 L54.7719,47.6092 L50.1939,56.7572 C49.9089,57.3202 49.3449,57.6772 48.7129,57.6842 C47.8399,57.6532 47.2659,57.1162 47.0779,56.4652 L41.5479,37.1122 L35.0839,50.0372 C34.8179,50.5742 34.2809,50.9272 33.7439,50.9612 C33.0859,50.9842 32.5619,50.7832 32.1859,50.2192 L26.7889,42.1192 L23.1689,46.9412 C22.8599,47.3572 22.3559,47.6092 21.8329,47.6092 L1.6849,47.6092 C0.7579,47.6092 0.0059,46.8572 0.0059,45.9312 C0.0059,45.0042 0.7579,44.2522 1.6849,44.2522 L20.9929,44.2522 L25.5329,38.2042 C25.8359,37.7942 26.3699,37.5352 26.8669,37.5352 C27.4509,37.5532 27.9609,37.8242 28.2699,38.2842 L33.3769,45.9472 L40.4799,31.7462 C40.7649,31.1762 41.3389,30.8192 41.9099,30.8192 C42.8269,30.8472 43.4049,31.3602 43.5959,32.0352 L49.1269,51.3942 L52.2329,45.1792 C52.5179,44.6072 53.0919,44.2522 53.7339,44.2522 L78.9189,44.2522 Z"></path>
            </g>
        </g>
    </g>
</svg>