<?xml version="1.0" encoding="UTF-8"?>
<svg width="25px" height="25px" viewBox="0 0 25 25" version="1.1" xmlns="http://www.w3.org/2000/svg" xmlns:xlink="http://www.w3.org/1999/xlink">
    <!-- Generator: Sketch 52.1 (67048) - http://www.bohemiancoding.com/sketch -->
    <title>calendar-2</title>
    <desc>Created with Sketch.</desc>
    <g id="Symbols" stroke="none" stroke-width="1" fill="none" fill-rule="evenodd">
        <g id="date-input" transform="translate(-312.000000, -10.000000)">
            <g id="calendar-2" transform="translate(313.000000, 11.000000)">
                <g id="Outline_Icons_1_" stroke="#EDA697" stroke-linecap="round" stroke-linejoin="round" stroke-width="0.8">
                    <g id="Outline_Icons">
                        <g id="Group">
                            <polyline id="Path" points="4 2 0 2 0 23 23 23 23 2 19 2"></polyline>
                            <rect id="Rectangle" x="5" y="0" width="3" height="4"></rect>
                            <rect id="Rectangle" x="17" y="0" width="3" height="4"></rect>
                            <path d="M8,2.5 L17,2.5" id="Path"></path>
                            <path d="M0,7.5 L23,7.5" id="Path"></path>
                            <path d="M6.5,9 L6.5,21" id="Path"></path>
                            <path d="M11.5,9 L11.5,21" id="Path"></path>
                            <path d="M16.5,9 L16.5,21" id="Path"></path>
                            <path d="M3,11.5 L22,11.5" id="Path"></path>
                            <path d="M3,15.5 L22,15.5" id="Path"></path>
                            <path d="M3,19.5 L22,19.5" id="Path"></path>
                        </g>
                    </g>
                </g>
                <g id="Invisible_Shape">
                    <rect id="Rectangle" x="0" y="0" width="24" height="24"></rect>
                </g>
            </g>
        </g>
    </g>
</svg>