<?xml version="1.0" encoding="UTF-8"?>
<svg width="120px" height="53px" viewBox="0 0 120 53" version="1.1" xmlns="http://www.w3.org/2000/svg" xmlns:xlink="http://www.w3.org/1999/xlink">
    <!-- Generator: Sketch 52.1 (67048) - http://www.bohemiancoding.com/sketch -->
    <title>bfm-logo</title>
    <desc>Created with Sketch.</desc>
    <g id="Symbols" stroke="none" stroke-width="1" fill="none" fill-rule="evenodd">
        <g id="Side-menu-/-dashboard" transform="translate(-20.000000, -30.000000)" fill="#FFFFFF">
            <g id="bfm-logo/white" transform="translate(20.000000, 30.000000)">
                <g id="bfm-logo">
                    <polygon id="Fill-1" points="34.7449945 31.2849093 29.5119725 39.9602333 24.2787857 32.7581773 18.5311484 33.5673766 18.5311484 52.9896477 23.5223571 52.2869436 23.5223571 40.591115 29.1793352 47.9759467 34.8358187 38.9682583 34.8358187 50.6943019 39.8270275 49.9915978 39.8270275 30.5694919"></polygon>
                    <path d="M57.5221813,37.8047184 C57.5221813,34.9565875 55.374544,32.9257464 52.712456,33.3005439 C50.050533,33.6751763 47.9028956,36.2804318 47.9028956,39.1285626 C47.9028956,41.9768586 50.050533,44.0075346 52.712456,43.6327371 C55.374544,43.2581047 57.5221813,40.6528492 57.5221813,37.8047184 M62.8763571,37.0509956 C62.8763571,42.6564474 58.3086099,47.8445034 52.712456,48.6322386 C47.1163022,49.4201389 42.5485549,45.4877371 42.5485549,39.8822854 C42.5485549,34.2768336 47.1163022,29.0887776 52.712456,28.3010424 C58.3086099,27.5131421 62.8763571,31.4455439 62.8763571,37.0509956" id="Fill-2"></path>
                    <polygon id="Fill-4" points="70.5895549 34.6017022 70.5895549 45.6612006 65.598511 46.3637396 65.598511 26.9414685 70.952522 26.1877458 78.0612033 36.4283034 78.0612033 25.1870199 83.0524121 24.484481 83.0524121 43.9065869 77.6982363 44.6604748"></polygon>
                    <polygon id="Fill-6" points="86.6815879 23.9735346 99.5679066 22.1594816 99.5679066 26.8560081 91.6726319 27.967357 91.6726319 30.5125128 98.3580165 29.5715564 98.3580165 34.2680829 91.6726319 35.2090393 91.6726319 37.9967402 99.5679066 36.8852262 99.5679066 41.5817526 86.6815879 43.3958056"></polygon>
                    <polygon id="Fill-8" points="107.825555 34.0562315 100.777368 21.9892377 106.313027 21.2099231 110.426984 28.4483031 114.601434 20.0430975 119.864786 19.3022533 112.816764 33.3536925 112.816764 39.7166645 107.825555 40.4193685"></polygon>
                    <path d="M23.6128187,21.2812336 L23.6128187,24.6142897 L26.4867198,24.2096075 C27.7572692,24.0307944 28.5738626,23.2491682 28.5738626,22.219053 C28.5738626,21.2191526 27.7572692,20.6979034 26.4867198,20.8767165 L23.6128187,21.2812336 Z M23.6128187,13.9789564 L23.6128187,17.2210374 L26.0934231,16.8718318 C27.3639725,16.6930187 28.1805659,15.9417726 28.1805659,14.9418723 C28.1805659,13.9721869 27.3639725,13.4509377 26.0934231,13.6297508 L23.6128187,13.9789564 Z M18.6217747,10.288109 L26.5472143,9.17246729 C30.479522,8.6188567 33.3834231,10.4522274 33.3834231,13.7852835 C33.3834231,16.0274642 31.8407308,17.3958879 30.5400165,18.154729 C32.415511,18.4362399 33.8070495,19.7249159 33.8070495,22.0276916 C33.8070495,24.9667975 31.6290824,27.8791558 26.9403462,28.5392617 L18.6217747,29.7103801 L18.6217747,10.288109 Z" id="Fill-10"></path>
                    <path d="M36.0749341,7.83113801 L41.0661429,7.12843396 L41.0661429,18.1273374 C41.0661429,20.4604931 42.397022,21.8183498 44.4238352,21.5330414 C46.3901538,21.2563187 47.6908681,19.5581723 47.6908681,17.2251816 L47.6908681,6.19589813 L52.6820769,5.49319408 L52.6820769,16.6132875 C52.6820769,21.8855492 49.3545495,25.8384246 44.3331758,26.5452564 C39.3721319,27.2436676 36.0749341,24.223328 36.0749341,18.9512315 L36.0749341,7.83113801 Z" id="Fill-12"></path>
                    <path d="M61.1514396,8.69449315 L61.1514396,12.8456645 L63.6017143,12.5005866 C65.1140769,12.2877611 66.1124835,11.2987579 66.1124835,10.0260975 C66.1124835,8.8141972 65.1140769,8.13675483 63.6017143,8.34958037 L61.1514396,8.69449315 Z M56.1603956,5.00364579 L63.2084176,4.0113405 C68.1391319,3.31738723 71.406,5.40271433 71.406,9.28096044 C71.406,11.7959012 70.0751209,13.9527206 67.8063297,15.3629168 L71.889956,22.2114745 L66.1124835,23.0248016 L62.784956,17.0090539 L61.1514396,17.2390508 L61.1514396,23.7232128 L56.1603956,24.4259168 L56.1603956,5.00364579 Z" id="Fill-14"></path>
                    <polygon id="Fill-16" points="79.6028407 10.0663181 79.6028407 21.1258165 74.6117967 21.8283555 74.6117967 2.40608442 79.9658077 1.65236168 87.074489 11.8929193 87.074489 0.651635826 91.7033901 0.000115576324 91.992511 19.4317978 86.7116868 20.1250907"></polygon>
                    <polygon id="Fill-18" points="96.4374396 10.0274679 102.085352 9.23246791 102.085352 11.3352966 98.6719451 11.8157639 98.6719451 13.1997078 101.543868 12.7953558 101.543868 14.8981844 98.6719451 15.3025364 98.6719451 18.4095583 96.4374396 18.724091"></polygon>
                    <path d="M109.199934,12.5859315 C109.199934,11.3104642 108.238286,10.4013738 107.046198,10.5692897 C105.85378,10.7370405 104.892132,11.9033707 104.892132,13.178838 C104.892132,14.4541402 105.85378,15.3633956 107.046198,15.1954798 C108.238286,15.027729 109.199934,13.8613988 109.199934,12.5859315 M111.596473,12.2486137 C111.596473,14.7584361 109.551857,17.0815202 107.046198,17.4341931 C104.540209,17.786866 102.49444,16.0263084 102.49444,13.5163209 C102.49444,11.0064984 104.540209,8.68324922 107.046198,8.33057632 C109.551857,7.97773832 111.596473,9.73862617 111.596473,12.2486137" id="Fill-20"></path>
                    <path d="M115.056247,9.37363614 L115.056247,11.2322685 L116.153555,11.0778916 C116.830863,10.9824586 117.277566,10.5398012 117.277566,9.96984486 C117.277566,9.42713146 116.830863,9.12382617 116.153555,9.21909408 L115.056247,9.37363614 Z M112.821742,7.72105981 L115.977181,7.2767514 C118.185148,6.96585109 119.64872,7.89937757 119.64872,9.63599439 C119.64872,10.7623682 119.052016,11.728091 118.036302,12.3594679 L119.864819,15.426038 L117.277566,15.7902685 L115.787621,13.0966798 L115.056247,13.1995427 L115.056247,16.102985 L112.821742,16.4175178 L112.821742,7.72105981 Z" id="Fill-22"></path>
                    <path d="M15.8065385,10.4018692 L15.8065385,13.1486231 L12.4734066,13.1624922 L10.1760989,10.409134 L15.8065385,10.4018692 Z M15.8065385,15.9231813 L15.8065385,18.6699352 L6.90412088,18.6838044 L4.60681319,15.9304461 L15.8065385,15.9231813 Z M15.8065385,26.9787997 L15.8065385,29.7255536 L12.4542857,29.7394227 L10.156978,26.9860645 L15.8065385,26.9787997 Z M15.8065385,21.444576 L15.8065385,24.1913299 L2.29747253,24.2051991 L0,21.4518408 L15.8065385,21.444576 Z" id="Combined-Shape"></path>
                </g>
            </g>
        </g>
    </g>
</svg>