<?xml version="1.0" encoding="UTF-8"?>
<svg width="25px" height="26px" viewBox="0 0 25 26" version="1.1" xmlns="http://www.w3.org/2000/svg" xmlns:xlink="http://www.w3.org/1999/xlink">
    <!-- Generator: Sketch 52.1 (67048) - http://www.bohemiancoding.com/sketch -->
    <title>Group 34</title>
    <desc>Created with Sketch.</desc>
    <g id="BFM-Dashboard" stroke="none" stroke-width="1" fill="none" fill-rule="evenodd" stroke-linecap="round" stroke-linejoin="round">
        <g id="Dashboard" transform="translate(-1326.000000, -202.000000)">
            <g id="Group-28" transform="translate(1190.000000, 177.000000)">
                <g id="Group-34" transform="translate(137.000000, 26.000000)">
                    <path d="M15,2 C15,3.104 11.643,4 7.5,4 C3.358,4 0,3.104 0,2 C0,0.896 3.358,0 7.5,0 C11.643,0 15,0.896 15,2 Z" id="Stroke-1" stroke="#2BB9FF"></path>
                    <path d="M15,3 L15,6 C15,7.104 11.643,8 7.5,8 C3.358,8 0,7.104 0,6 L0,3" id="Stroke-3" stroke="#2BB9FF"></path>
                    <path d="M15,6 L15,9 C15,10.104 11.643,11 7.5,11 C3.358,11 0,10.104 0,9 L0,6" id="Stroke-5" stroke="#2BB9FF"></path>
                    <path d="M23,16 C23,17.104 19.643,18 15.5,18 C11.358,18 8,17.104 8,16 C8,14.896 11.358,14 15.5,14 C19.643,14 23,14.896 23,16 Z" id="Stroke-7" stroke="#DCDCE1"></path>
                    <path d="M23,16 L23,19 C23,20.104 19.643,21 15.5,21 C11.358,21 8,20.104 8,19 L8,16" id="Stroke-9" stroke="#DCDCE1"></path>
                    <path d="M23,19 L23,22 C23,23.104 19.643,24 15.5,24 C11.358,24 8,23.104 8,22 L8,19" id="Stroke-11" stroke="#DCDCE1"></path>
                    <path d="M15,9 L15,12 C15,13.104 11.643,14 7.5,14 C3.358,14 0,13.104 0,12 L0,9" id="Stroke-13" stroke="#2BB9FF"></path>
                    <path d="M0,12 L0,15 C0,16.104 3.358,17 7.5,17 L8,17" id="Stroke-15" stroke="#2BB9FF"></path>
                    <path d="M0,15 L0,18 C0,19.104 3.358,20 7.5,20 L8,20" id="Stroke-17" stroke="#2BB9FF"></path>
                    <path d="M15.5,12 L15.5,14" id="Stroke-19" stroke="#2BB9FF"></path>
                </g>
            </g>
        </g>
    </g>
</svg>