<?xml version="1.0" encoding="UTF-8"?>
<svg width="62px" height="27px" viewBox="0 0 62 27" version="1.1" xmlns="http://www.w3.org/2000/svg" xmlns:xlink="http://www.w3.org/1999/xlink">
    <!-- Generator: Sketch 51.3 (57544) - http://www.bohemiancoding.com/sketch -->
    <title>Combined Shape</title>
    <desc>Created with Sketch.</desc>
    <defs></defs>
    <g id="Page-1" stroke="none" stroke-width="1" fill="none" fill-rule="evenodd">
        <g id="bfm-home" transform="translate(-40.000000, -40.000000)" fill="#FFFFFF">
            <path d="M53.3647846,67 L45,48.4608757 L48.8174848,40 L61,67 L53.3647846,67 Z M66.3649075,67 L58,48.4608757 L61.8176077,40 L74,67 L66.3649075,67 Z M43.5,60 C45.4299471,60 47,61.5700212 47,63.4997999 C47,65.4298455 45.4299471,67 43.5,67 C41.5700529,67 40,65.4298455 40,63.4997999 C40,61.5700212 41.5700529,60 43.5,60 Z M80,40 L87.6351567,40 L96,58.5391243 L92.1824216,67 L80,40 Z M67,40 L74.6350925,40 L83,58.5391243 L79.1825152,67 L67,40 Z M98.4999343,40 C100.429845,40 102,41.5701545 102,43.5002001 C102,45.4299788 100.429845,47 98.4999343,47 C96.5700235,47 95,45.4299788 95,43.5002001 C95,41.5701545 96.5700235,40 98.4999343,40 Z" id="Combined-Shape"></path>
        </g>
    </g>
</svg>