<?xml version="1.0" encoding="UTF-8"?>
<svg width="78px" height="63px" viewBox="0 0 78 63" version="1.1" xmlns="http://www.w3.org/2000/svg" xmlns:xlink="http://www.w3.org/1999/xlink">
    <!-- Generator: Sketch 56 (81588) - https://sketch.com -->
    <title>account-group-1</title>
    <desc>Created with Sketch.</desc>
    <g id="-" stroke="none" stroke-width="1" fill="none" fill-rule="evenodd" stroke-linejoin="round">
        <g id="Desktop-HD---Ruta-1" transform="translate(-541.000000, -449.000000)" stroke-width="2">
            <g id="account-group-1" transform="translate(542.000000, 450.000000)">
                <g id="Outline_Icons_1_">
                    <g id="Outline_Icons">
                        <g id="Group">
                            <path d="M29.86525,60.3201754 L59.125,60.3201754 C59.125,60.3201754 59.125,50.2935789 57.5845,46.019114 C56.24225,42.2980263 46.5475,39.8093246 36.375,36.2826667 L36.375,28.8045965 C36.375,28.8045965 39.625,26.9530263 39.625,19.8309123 C42.875,19.8309123 42.875,13.8484561 39.625,13.8484561 C39.625,13.1485088 43.1285,8.82917544 42.0625,4.87477193 C40.522,-0.820526316 22.07175,-0.820526316 20.53125,4.87477193 C12.832,3.45094737 16.875,12.8942544 16.875,13.8484561 L16.875,19.8309123 C16.875,26.9530263 23.375,28.8045965 23.375,28.8045965 L23.375,36.2826667 C14.3465,39.4414035 3.5045,42.3010175 2.1655,46.019114 C0.625,50.2935789 0.625,60.3201754 0.625,60.3201754 L29.86525,60.3201754 Z" id="Shape" stroke="#2BB9FF"></path>
                            <path d="M67.25,60.3201754 L75.375,60.3201754 C75.375,60.3201754 75.375,50.2935789 73.8345,46.019114 C72.49225,42.2980263 62.7975,38.3137105 52.625,34.7870526 L52.625,30.3002105 C52.625,30.3002105 55.875,28.4486404 55.875,21.3265263 C59.125,21.3265263 59.125,15.3440702 55.875,15.3440702 C55.875,14.6441228 59.3785,9.77440351 58.3125,5.82 C57.591,3.15481579 51.40625,-1.05384211 46.53125,1.93738596" id="Shape" stroke="#DCDCE1" stroke-linecap="round"></path>
                        </g>
                    </g>
                </g>
            </g>
        </g>
    </g>
</svg>