<?xml version="1.0" encoding="UTF-8"?>
<svg width="50px" height="49px" viewBox="0 0 50 49" version="1.1" xmlns="http://www.w3.org/2000/svg" xmlns:xlink="http://www.w3.org/1999/xlink">
    <!-- Generator: Sketch 51.1 (57501) - http://www.bohemiancoding.com/sketch -->
    <title>Fill 1</title>
    <desc>Created with Sketch.</desc>
    <defs></defs>
    <g id="Page-1" stroke="none" stroke-width="1" fill="none" fill-rule="evenodd">
        <g id="Desktop" transform="translate(-659.000000, -461.000000)" fill="#3D3D3D">
            <path d="M684.77354,461.297018 C684.346835,460.900994 683.653165,460.900994 683.22646,461.297018 L659.320029,483.486526 C658.893324,483.882549 658.893324,484.526342 659.320029,484.922365 L666.869428,491.926906 C667.28738,492.316837 667.963544,492.324961 668.394626,491.947215 L677.178188,484.258264 L677.178188,508.734555 C677.178188,509.295081 677.668352,509.75 678.272304,509.75 L689.195956,509.741876 C689.799908,509.741876 690.290072,509.286957 690.290072,508.726431 L690.274754,484.152658 L699.62288,491.961431 C700.05615,492.326992 700.716996,492.312775 701.13276,491.926906 L708.679971,484.922365 C709.106676,484.526342 709.106676,483.882549 708.679971,483.486526 L684.77354,461.297018 Z" id="Fill-1" transform="translate(684.000000, 485.375000) rotate(-180.000000) translate(-684.000000, -485.375000) "></path>
        </g>
    </g>
</svg>