<svg id="Layer_1" data-name="Layer 1" xmlns="http://www.w3.org/2000/svg" viewBox="0 0 259.47 137.39"><defs><style>.cls-1{fill:#ff5c5c;}.cls-2{fill:#3d3d3d;}</style></defs><ellipse class="cls-1" cx="129.73" cy="63.32" rx="121.23" ry="56.85"/><path class="cls-2" d="M219.28,17.5C195.21,6.22,163.41,0,129.73,0S64.26,6.22,40.19,17.5C16.75,28.49,2.73,43.37,0,59.87v77.52H17V99.54A99.61,99.61,0,0,0,40.19,114.2c24.07,11.28,55.87,17.5,89.54,17.5s65.48-6.22,89.55-17.5a99.61,99.61,0,0,0,23.19-14.66v37.85h17V71.83h0V59.88C256.74,43.37,242.72,28.49,219.28,17.5Zm-7.64,80.4c-21.73,10.19-50.82,15.8-81.91,15.8s-60.17-5.61-81.9-15.8c-19.28-9-30.33-20.72-30.33-32.05s11.05-23,30.33-32C69.56,23.61,98.64,18,129.73,18s60.18,5.61,81.91,15.8c19.27,9,30.33,20.72,30.33,32.05S230.91,88.86,211.64,97.9Z"/></svg>