<?xml version="1.0" encoding="UTF-8"?>
<svg width="71px" height="136px" viewBox="0 0 71 136" version="1.1" xmlns="http://www.w3.org/2000/svg" xmlns:xlink="http://www.w3.org/1999/xlink">
    <!-- Generator: Sketch 52.1 (67048) - http://www.bohemiancoding.com/sketch -->
    <title>walk</title>
    <desc>Created with Sketch.</desc>
    <g id="Page-1" stroke="none" stroke-width="1" fill="none" fill-rule="evenodd">
        <g id="icons" transform="translate(-558.000000, -140.000000)" fill="#231F20">
            <g id="walk" transform="translate(558.000000, 140.000000)">
                <path d="M30.4194,24.2698 C24.3774,20.7108 22.3654,12.9298 25.9224,6.8888 C29.4794,0.8468 37.2614,-1.1662 43.3034,2.3908 C49.3444,5.9498 51.3574,13.7308 47.8004,19.7718 C44.2414,25.8138 36.4614,27.8268 30.4194,24.2698 Z M69.5806,124.3235 C71.2056,127.8465 69.9246,132.0285 66.6056,134.0385 C62.5986,136.4665 57.3706,134.7395 55.5966,130.4025 L47.6016,110.8515 L37.3576,96.5425 C34.2046,103.7725 30.0106,110.5415 24.8696,116.6145 L13.5836,129.9455 C10.9136,133.0995 6.2196,133.5595 2.9876,130.9845 C-0.4484,128.2465 -0.8744,123.1825 2.0556,119.9095 L7.0376,114.3435 C15.3216,105.0885 26.4916,82.3935 26.4916,82.3935 C26.4916,82.3935 28.6916,68.4995 29.1096,61.1965 L29.8316,48.5985 L25.4746,53.6905 C23.3206,56.2085 21.7156,59.1465 20.7606,62.3185 L19.3066,67.1505 C18.1026,71.1475 13.8956,73.4215 9.8926,72.2345 C5.5616,70.9515 3.3076,66.1895 5.0586,62.0265 L10.2736,49.6275 C11.2996,47.1895 12.7236,44.9385 14.4876,42.9695 L23.9376,32.4135 C29.4646,26.2405 39.3466,27.0055 43.8576,33.9555 L47.2256,39.1435 C50.3586,43.9695 54.7236,47.8705 59.8696,50.4435 L63.6966,52.3565 C67.4776,54.2475 68.9646,58.8775 66.9916,62.6155 C65.0146,66.3625 60.3376,67.7435 56.6416,65.6725 L46.1336,59.7835 L42.9296,78.0565 C42.7766,78.9305 42.6076,79.8015 42.4266,80.6675 L57.8006,100.5425 C59.1436,102.2795 60.2866,104.1625 61.2056,106.1575 L69.5806,124.3235 Z"></path>
            </g>
        </g>
    </g>
</svg>