<?xml version="1.0" encoding="UTF-8"?>
<svg width="96px" height="99px" viewBox="0 0 96 99" version="1.1" xmlns="http://www.w3.org/2000/svg" xmlns:xlink="http://www.w3.org/1999/xlink">
    <!-- Generator: Sketch 52.1 (67048) - http://www.bohemiancoding.com/sketch -->
    <title>winter</title>
    <desc>Created with Sketch.</desc>
    <g id="Page-1" stroke="none" stroke-width="1" fill="none" fill-rule="evenodd">
        <g id="icons" transform="translate(-758.000000, -158.000000)" fill="#020303">
            <g id="winter" transform="translate(758.000000, 158.000000)">
                <path d="M57.7998,52.5325 L53.2208,49.8885 L57.7998,47.2455 L67.6658,49.8885 L57.7998,52.5325 Z M50.6438,59.6405 L50.6438,54.3525 L55.2228,56.9965 L57.8658,66.8625 L50.6438,59.6405 Z M50.6438,40.1375 L57.8648,32.9165 L55.2228,42.7825 L50.6438,45.4265 L50.6438,40.1375 Z M45.4888,45.4255 L40.9098,42.7815 L38.2678,32.9165 L45.4888,40.1375 L45.4888,45.4255 Z M45.4888,59.6405 L38.2668,66.8625 L40.9098,56.9965 L45.4888,54.3525 L45.4888,59.6405 Z M28.4668,49.8885 L38.3338,47.2455 L42.9128,49.8885 L38.3338,52.5335 L28.4668,49.8885 Z M92.1168,62.8225 L80.8508,65.8415 L77.0488,63.6455 L84.4988,61.6495 C85.7858,61.3035 86.6348,60.1395 86.6348,58.8675 C86.6348,58.6205 86.6038,58.3695 86.5358,58.1195 C86.1248,56.5825 84.5448,55.6695 83.0058,56.0815 L69.9878,59.5695 L64.1118,56.1775 L75.0508,53.2475 C76.2018,52.9385 76.9608,51.8965 76.9608,50.7595 C76.9608,50.5395 76.9318,50.3135 76.8728,50.0915 C76.8538,50.0195 76.8208,49.9575 76.7968,49.8895 C76.8208,49.8215 76.8538,49.7595 76.8728,49.6875 C76.9318,49.4655 76.9608,49.2405 76.9608,49.0195 C76.9608,47.8825 76.2018,46.8405 75.0508,46.5315 L64.1118,43.6005 L69.9878,40.2085 L83.0058,43.6975 C84.5448,44.1085 86.1248,43.1965 86.5358,41.6585 C86.6038,41.4085 86.6348,41.1575 86.6348,40.9115 C86.6348,39.6375 85.7858,38.4735 84.4988,38.1285 L77.0488,36.1325 L80.8498,33.9375 L92.1168,36.9575 C93.4928,37.3255 94.9058,36.5105 95.2748,35.1355 C95.3338,34.9115 95.3628,34.6865 95.3628,34.4665 C95.3628,33.3285 94.6038,32.2865 93.4528,31.9785 L87.1618,30.2935 L89.5718,28.9015 C90.3988,28.4255 90.8608,27.5585 90.8608,26.6685 C90.8608,26.2305 90.7498,25.7875 90.5148,25.3825 C89.8028,24.1495 88.2278,23.7265 86.9938,24.4385 L84.5858,25.8295 L86.2708,19.5405 C86.6318,18.1665 85.8228,16.7515 84.4488,16.3845 C83.0728,16.0155 81.6598,16.8315 81.2908,18.2065 L78.2728,29.4735 L74.4698,31.6695 L76.4668,24.2185 C76.8818,22.6765 75.9658,21.1005 74.4298,20.6875 C72.8908,20.2755 71.3108,21.1885 70.8998,22.7265 L67.4098,35.7455 L61.5358,39.1365 L64.4668,28.1985 C64.8268,26.8215 64.0188,25.4115 62.6428,25.0435 C62.5628,25.0215 62.4828,25.0165 62.4028,25.0035 C62.3598,24.9535 62.3428,24.8895 62.2958,24.8425 C61.2888,23.8355 59.6578,23.8355 58.6508,24.8425 L50.6438,32.8485 L50.6438,26.0645 L60.1748,16.5345 C60.7368,15.9715 61.0188,15.2335 61.0188,14.4965 C61.0188,13.7595 60.7368,13.0205 60.1748,12.4585 C59.0488,11.3325 57.2228,11.3325 56.0968,12.4585 L50.6438,17.9115 L50.6438,13.5215 L58.8928,5.2735 C59.3958,4.7695 59.6478,4.1105 59.6478,3.4515 C59.6478,2.7925 59.3958,2.1325 58.8928,1.6295 C57.8858,0.6225 56.2548,0.6225 55.2478,1.6295 L50.6438,6.2335 L50.6438,3.4515 C50.6438,2.0275 49.4888,0.8745 48.0668,0.8745 C46.6438,0.8745 45.4888,2.0275 45.4888,3.4515 L45.4888,6.2335 L40.8848,1.6295 C39.8778,0.6225 38.2468,0.6225 37.2398,1.6295 C36.2338,2.6365 36.2338,4.2665 37.2398,5.2735 L45.4888,13.5215 L45.4888,17.9115 L40.0358,12.4585 C38.9098,11.3325 37.0848,11.3325 35.9588,12.4585 C34.8348,13.5825 34.8348,15.4095 35.9588,16.5345 L45.4888,26.0645 L45.4888,32.8485 L37.4818,24.8425 C36.4748,23.8355 34.8438,23.8355 33.8378,24.8425 C33.7898,24.8895 33.7738,24.9535 33.7308,25.0035 C33.6508,25.0165 33.5708,25.0215 33.4898,25.0435 C32.1138,25.4115 31.3038,26.8215 31.6668,28.1985 L34.5968,39.1365 L28.7228,35.7455 L25.2338,22.7265 C24.8218,21.1885 23.2418,20.2755 21.7028,20.6875 C20.1658,21.1005 19.2528,22.6825 19.6658,24.2185 L21.6618,31.6695 L17.8598,29.4735 L14.8408,18.2065 C14.4728,16.8315 13.0598,16.0155 11.6848,16.3845 C10.3098,16.7515 9.4928,18.1665 9.8628,19.5405 L11.5478,25.8295 L9.1388,24.4385 C7.9068,23.7265 6.3308,24.1495 5.6188,25.3825 C4.9058,26.6135 5.3308,28.1895 6.5618,28.9015 L8.9718,30.2935 L2.6818,31.9785 C1.3068,32.3465 0.4868,33.7575 0.8598,35.1355 C1.2278,36.5105 2.6408,37.3255 4.0158,36.9575 L15.2838,33.9375 L19.0848,36.1325 L11.6338,38.1285 C10.0968,38.5415 9.1858,40.1195 9.5958,41.6585 C10.0078,43.1965 11.5888,44.1085 13.1258,43.6975 L26.1458,40.2085 L32.0208,43.6005 L21.0818,46.5315 C19.7078,46.8985 18.8988,48.3115 19.2598,49.6875 C19.2788,49.7595 19.3118,49.8215 19.3358,49.8895 C19.3118,49.9575 19.2788,50.0195 19.2598,50.0915 C18.8988,51.4625 19.7078,52.8795 21.0818,53.2475 L32.0208,56.1785 L26.1458,59.5695 L13.1258,56.0815 C11.5888,55.6695 10.0078,56.5825 9.5958,58.1195 C9.1818,59.6575 10.0978,61.2385 11.6338,61.6495 L19.0848,63.6455 L15.2828,65.8415 L4.0158,62.8225 C2.6408,62.4535 1.2278,63.2695 0.8598,64.6445 C0.4868,66.0145 1.3068,67.4315 2.6818,67.8005 L8.9708,69.4855 L6.5618,70.8765 C5.3298,71.5875 4.9058,73.1625 5.6188,74.3965 C6.3308,75.6295 7.9068,76.0525 9.1388,75.3395 L11.5478,73.9485 L9.8628,80.2385 C9.4928,81.6125 10.3098,83.0265 11.6848,83.3945 C13.0598,83.7625 14.4728,82.9475 14.8408,81.5725 L17.8608,70.3045 L21.6618,68.1095 L19.6658,75.5595 C19.2548,77.0985 20.1658,78.6785 21.7028,79.0905 C23.2418,79.5025 24.8218,78.5895 25.2338,77.0525 L28.7228,64.0325 L34.5968,60.6405 L31.6668,71.5795 C31.3038,72.9515 32.1138,74.3675 33.4898,74.7355 C33.5708,74.7575 33.6498,74.7615 33.7298,74.7745 C33.7728,74.8255 33.7898,74.8885 33.8378,74.9365 C34.8438,75.9435 36.4748,75.9435 37.4818,74.9365 L45.4888,66.9295 L45.4888,73.7145 L35.9588,83.2455 C34.8348,84.3715 34.8348,86.1955 35.9588,87.3215 C37.0848,88.4465 38.9098,88.4465 40.0358,87.3205 L45.4888,81.8665 L45.4888,86.2575 L37.2398,94.5055 C36.2338,95.5115 36.2338,97.1425 37.2398,98.1495 C38.2468,99.1555 39.8778,99.1555 40.8848,98.1495 L45.4888,93.5455 L45.4888,96.3275 C45.4888,97.7505 46.6438,98.9045 48.0668,98.9045 C49.4888,98.9045 50.6438,97.7505 50.6438,96.3275 L50.6438,93.5455 L55.2478,98.1495 C56.2548,99.1555 57.8858,99.1555 58.8928,98.1495 C59.3958,97.6455 59.6478,96.9865 59.6478,96.3275 C59.6478,95.6675 59.3958,95.0075 58.8928,94.5055 L50.6438,86.2575 L50.6438,81.8665 L56.0968,87.3205 C57.2228,88.4465 59.0488,88.4465 60.1748,87.3215 C60.7368,86.7595 61.0188,86.0205 61.0188,85.2825 C61.0188,84.5455 60.7368,83.8065 60.1748,83.2455 L50.6438,73.7145 L50.6438,66.9295 L58.6508,74.9365 C59.6578,75.9435 61.2888,75.9435 62.2958,74.9365 C62.3428,74.8885 62.3598,74.8255 62.4038,74.7745 C62.4828,74.7615 62.5628,74.7575 62.6428,74.7355 C64.0188,74.3675 64.8268,72.9515 64.4668,71.5795 L61.5358,60.6405 L67.4098,64.0325 L70.8998,77.0525 C71.3108,78.5895 72.8908,79.5025 74.4298,79.0905 C75.9658,78.6785 76.8798,77.0945 76.4668,75.5595 L74.4698,68.1085 L78.2728,70.3035 L81.2908,81.5725 C81.6598,82.9475 83.0728,83.7625 84.4488,83.3945 C85.8228,83.0265 86.6318,81.6125 86.2708,80.2385 L84.5858,73.9485 L86.9938,75.3395 C88.2278,76.0525 89.8028,75.6295 90.5148,74.3965 C90.7498,73.9905 90.8608,73.5475 90.8608,73.1105 C90.8608,72.2195 90.3988,71.3535 89.5718,70.8765 L87.1628,69.4855 L93.4528,67.8005 C94.6038,67.4925 95.3628,66.4505 95.3628,65.3125 C95.3628,65.0925 95.3338,64.8675 95.2748,64.6445 C94.9058,63.2695 93.4928,62.4535 92.1168,62.8225 Z"></path>
            </g>
        </g>
    </g>
</svg>