<?xml version="1.0" encoding="UTF-8"?>
<svg width="19px" height="22px" viewBox="0 0 19 22" version="1.1" xmlns="http://www.w3.org/2000/svg" xmlns:xlink="http://www.w3.org/1999/xlink">
    <!-- Generator: Sketch 51.3 (57544) - http://www.bohemiancoding.com/sketch -->
    <title>Combined Shape</title>
    <desc>Created with Sketch.</desc>
    <defs></defs>
    <g id="Page-1" stroke="none" stroke-width="1" fill="none" fill-rule="evenodd">
        <g id="bfm-home" transform="translate(-731.000000, -1677.000000)" fill="#000000">
            <path d="M749.913167,1684.97232 C750.137712,1685.49895 749.913167,1686.12134 749.396487,1686.33678 C749.127256,1686.48041 746.836889,1687.55762 746.275525,1687.77307 C746.118343,1687.84488 745.983615,1687.86882 745.848663,1687.86882 C745.017844,1687.86882 744.658795,1686.79161 744.434249,1686.19316 C744.276843,1685.73833 744.074976,1685.16382 743.805521,1684.73294 C742.996932,1685.81015 742.166337,1687.72519 741.627427,1689.08966 C743.35643,1690.38231 744.14234,1691.1962 744.16457,1692.10585 C744.187249,1693.03943 743.221478,1696.295 742.637883,1698.16217 C742.480477,1698.66487 742.031385,1699 741.537384,1699 C741.425111,1699 741.290609,1698.97606 741.178336,1698.92819 C740.571838,1698.7125 740.235019,1698.01854 740.437335,1697.37221 C741.020929,1695.48087 741.672336,1693.20676 741.806839,1692.36893 C741.335518,1691.81859 739.763697,1690.71744 739.000017,1690.16687 C737.899967,1693.20676 736.889511,1693.49425 736.395511,1693.47032 C735.90151,1693.44614 732.17405,1693.08707 732.039098,1693.06337 C731.410594,1693.01549 730.939048,1692.3931 731.006412,1691.72284 C731.073776,1691.05234 731.63514,1690.57381 732.286323,1690.66957 C732.308777,1690.66957 734.82369,1690.93289 736.080922,1691.02864 C736.395511,1690.57381 737.024239,1689.1136 737.428197,1687.70125 C737.652742,1686.43254 738.461332,1684.3978 739.336836,1683.12909 C738.506241,1683.12909 737.720331,1683.22484 737.361057,1683.29665 C737.046693,1683.67966 736.373056,1684.92444 735.856376,1685.95378 C735.676964,1686.28891 735.340145,1686.50435 734.980872,1686.50435 C734.82369,1686.50435 734.666508,1686.48041 734.509101,1686.38466 C734.03778,1686.0974 733.858143,1685.47501 734.105144,1684.94838 C735.744103,1681.64493 736.238329,1681.42949 736.552693,1681.33374 C737.091378,1681.11829 740.459565,1680.6156 742.458247,1681.52524 C742.54784,1681.57312 743.35643,1681.95613 743.962703,1682.21944 C745.377342,1682.81789 745.938706,1684.42174 746.320434,1685.47501 C746.342889,1685.47501 746.342889,1685.49895 746.342889,1685.49895 C746.994071,1685.2117 747.936939,1684.75687 748.610576,1684.44568 C749.104577,1684.2063 749.688621,1684.44568 749.913167,1684.97232 Z M741.161951,1678.21279 C741.596614,1677.19767 742.772088,1676.72729 743.787208,1677.16195 C744.802329,1677.59681 745.272712,1678.77209 744.838049,1679.78721 C744.403192,1680.80233 743.227912,1681.27271 742.212792,1680.83805 C741.197671,1680.40319 740.727288,1679.22791 741.161951,1678.21279 Z" id="Combined-Shape"></path>
        </g>
    </g>
</svg>