<?xml version="1.0" encoding="UTF-8"?>
<svg width="299px" height="133px" viewBox="0 0 299 133" version="1.1" xmlns="http://www.w3.org/2000/svg" xmlns:xlink="http://www.w3.org/1999/xlink">
    <!-- Generator: Sketch 51.1 (57501) - http://www.bohemiancoding.com/sketch -->
    <title>Group 36</title>
    <desc>Created with Sketch.</desc>
    <defs>
        <polygon id="path-1" points="0.157557021 0.398325499 47.781192 0.398325499 47.781192 53.0003231 0.157557021 53.0003231"></polygon>
        <polygon id="path-3" points="0.185934557 0.319721582 17.7585804 0.319721582 17.7585804 23.2363807 0.185934557 23.2363807"></polygon>
        <polygon id="path-5" points="0 0.249606345 39.4377026 0.249606345 39.4377026 7.12622209 0 7.12622209"></polygon>
    </defs>
    <g id="Page-1" stroke="none" stroke-width="1" fill="none" fill-rule="evenodd">
        <g id="Desktop" transform="translate(-534.000000, -80.000000)">
            <g id="Group-36" transform="translate(534.000000, 80.000000)">
                <polygon id="Fill-1" fill="#3D3D3D" points="87.3416453 77.4557581 74.3072064 99.3264536 61.2723568 81.1699011 46.9565217 83.2099117 46.9565217 132.173913 59.3882405 130.40238 59.3882405 100.916921 73.4782609 119.534255 87.5678706 96.8256611 87.5678706 126.387292 100 124.616175 100 75.6521739"></polygon>
                <g id="Group-35">
                    <path d="M131.519314,108.713784 C124.877737,109.647391 119.518906,104.588637 119.518906,97.493631 C119.518906,90.3990364 124.877737,83.9098472 131.519314,82.9762397 C138.160892,82.0430435 143.519722,87.1013866 143.519722,94.1959812 C143.519722,101.290987 138.160892,107.780176 131.519314,108.713784 M131.519314,70.5226557 C117.556744,72.4852879 106.160078,85.4081434 106.160078,99.3711281 C106.160078,113.334524 117.556744,123.129589 131.519314,121.167368 C145.481885,119.204736 156.878551,106.28188 156.878551,92.3184841 C156.878551,78.3554994 145.482296,68.5604348 131.519314,70.5226557" id="Fill-2" fill="#3D3D3D"></path>
                    <polygon id="Fill-4" fill="#3D3D3D" points="194.765112 90.7677497 177.02874 65.2588778 163.669912 67.1363749 163.669912 115.516575 176.122716 113.766163 176.122716 86.2173384 193.859499 111.27339 207.218327 109.395893 207.218327 61.0156933 194.765112 62.7661046"></polygon>
                    <polygon id="Fill-6" fill="#3D3D3D" points="216.272777 108.123349 248.424937 103.604606 248.424937 91.9057227 228.726403 94.6744653 228.726403 87.7308108 245.406225 85.38651 245.406225 73.687215 228.726403 76.0315159 228.726403 69.6920329 248.424937 66.9232902 248.424937 55.2244066 216.273188 59.7431492"></polygon>
                    <g id="Group-10" transform="translate(251.285146, 47.708578)">
                        <mask id="mask-2" fill="white">
                            <use xlink:href="#path-1"></use>
                        </mask>
                        <g id="Clip-9"></g>
                        <polygon id="Fill-8" fill="#3D3D3D" mask="url(#mask-2)" points="24.2336352 23.1808167 13.9691922 5.15067568 0.157557021 7.09150999 17.7429933 37.1503819 17.7429933 53.0003231 30.1962081 51.2503231 30.1962081 35.3999706 47.7812331 0.398325499 34.6486025 2.24415394"></polygon>
                    </g>
                    <path d="M58.9147279,61.3390423 L58.9147279,53.0369271 L66.0851968,52.0292891 C69.2548443,51.5834606 71.2926805,52.8818743 71.2926805,55.3725911 C71.2926805,57.9389835 69.2548443,59.8859871 66.0851968,60.3314042 L58.9147279,61.3390423 Z M58.9147279,34.8467979 L65.1039098,33.9773502 C68.2739686,33.5315217 70.3113935,34.8303467 70.3113935,37.2453878 C70.3113935,39.7361046 68.2739686,41.6074324 65.1039098,42.0532609 L58.9147279,42.9227086 L58.9147279,34.8467979 Z M84.3496377,54.8963278 C84.3496377,49.1601939 80.8777077,45.9497356 76.198293,45.248913 C79.4436139,43.3586663 83.2926772,39.9495593 83.2926772,34.3643655 C83.2926772,26.0622503 76.0473574,21.4949765 66.2361324,22.8740012 L46.4619244,25.6530259 L46.4619244,74.0332256 L67.2170082,71.1164219 C78.915545,69.472121 84.3496377,62.2175382 84.3496377,54.8963278 Z" id="Fill-11" fill="#3D3D3D"></path>
                    <path d="M110.612472,66.1494242 C123.140949,64.3887309 131.44323,54.5418449 131.44323,41.4092362 L131.44323,13.7094712 L118.990015,15.4594712 L118.990015,42.9330317 C118.990015,48.7448414 115.744694,52.9744536 110.83867,53.6641716 C105.782122,54.3748649 102.461539,50.9920799 102.461539,45.1806816 L102.461539,17.7827967 L90.0079129,19.5327967 L90.0079129,47.2325617 C90.0079129,60.3655817 98.2345197,67.8891422 110.612472,66.1494242" id="Fill-13" fill="#3D3D3D"></path>
                    <path d="M152.574748,21.6835899 L158.688256,20.8244242 C162.461646,20.2938719 164.9527,21.9817685 164.9527,25.0009812 C164.9527,28.1707227 162.461646,30.6342949 158.688256,31.164436 L152.574748,32.0240129 L152.574748,21.6835899 Z M152.574748,42.967785 L156.65042,42.395282 L164.9527,57.3798884 L179.367666,55.3539189 L169.178897,38.2944007 C174.839599,34.781651 178.160182,29.4090893 178.160182,23.1444595 C178.160182,13.4834724 170.009248,8.28940658 157.706969,10.01802 L140.121944,12.4898179 L140.121944,60.8700176 L152.574748,59.1196063 L152.574748,42.967785 Z" id="Fill-15" fill="#3D3D3D"></path>
                    <polygon id="Fill-17" fill="#3D3D3D" points="198.611502 25.1006757 216.348286 50.1567274 229.524099 48.4297591 228.802734 0.0261163337 217.253488 1.64903055 217.253488 29.651087 199.517116 4.14221504 186.158699 6.01930082 186.158699 54.3999119 198.611502 52.6495006"></polygon>
                    <polygon id="Fill-19" fill="#3D3D3D" points="246.189363 38.1439542 253.354897 37.1367274 253.354897 31.8986545 246.189363 32.9058813 246.189363 29.4585253 254.705914 28.261698 254.705914 23.0236251 240.614205 25.0039424 240.614205 46.6669271 246.189363 45.8834371"></polygon>
                    <path d="M267.082962,26.3534783 C270.057668,25.9356169 272.45701,28.2001293 272.45701,31.3768625 C272.45701,34.5540071 270.057668,37.4592949 267.082962,37.8775676 C264.108667,38.2954289 261.709326,36.0309166 261.709326,32.853772 C261.709326,29.6770388 264.108667,26.7717509 267.082962,26.3534783 M267.082962,43.4537133 C273.335068,42.5752174 278.436856,36.7889072 278.436856,30.5366157 C278.436856,24.2843243 273.335068,19.8984254 267.082962,20.7769213 C260.831267,21.6554172 255.727012,27.4425499 255.727012,33.6948414 C255.727012,39.9467215 260.831267,44.3326204 267.082962,43.4537133" id="Fill-21" fill="#3D3D3D"></path>
                    <g id="Group-25" transform="translate(281.307758, 17.685076)">
                        <mask id="mask-4" fill="white">
                            <use xlink:href="#path-3"></use>
                        </mask>
                        <g id="Clip-24"></g>
                        <path d="M5.7610924,5.69031727 L8.49931909,5.3053584 C10.1888107,5.06804935 11.3033488,5.82357227 11.3033488,7.17545241 C11.3033488,8.59519389 10.1888107,9.69783784 8.49931909,9.93555817 L5.7610924,10.3201058 L5.7610924,5.69031727 Z M5.7610924,15.220517 L7.58589141,14.9638778 L11.3033488,21.6739248 L17.7586215,20.7666392 L13.1964184,13.1275088 C15.7306558,11.5551821 17.2194483,9.14918919 17.2194483,6.34384254 C17.2194483,2.0179906 13.567794,-0.307391304 8.05885036,0.467050529 L0.185934557,1.573396 L0.185934557,23.2363807 L5.7610924,22.4528907 L5.7610924,15.220517 Z" id="Fill-23" fill="#3D3D3D" mask="url(#mask-4)"></path>
                    </g>
                    <polygon id="Fill-26" fill="#FF5C5C" points="39.4377026 25.7977145 25.389588 25.8158108 31.1214392 32.6743302 39.4377026 32.6397826"></polygon>
                    <polygon id="Fill-28" fill="#FF5C5C" points="39.4377026 39.5512338 11.494054 39.5693302 17.2259052 46.4278496 39.4377026 46.393302"></polygon>
                    <polygon id="Fill-30" fill="#FF5C5C" points="39.4377026 67.0903525 25.3418808 67.1084489 31.073732 73.9669683 39.4377026 73.9324207"></polygon>
                    <g id="Group-34" transform="translate(0.000000, 53.055229)">
                        <mask id="mask-6" fill="white">
                            <use xlink:href="#path-5"></use>
                        </mask>
                        <g id="Clip-33"></g>
                        <polygon id="Fill-32" fill="#FF5C5C" mask="url(#mask-6)" points="39.4377026 0.249606345 -8.22537304e-05 0.267702703 5.73218022 7.12622209 39.4377026 7.0916745"></polygon>
                    </g>
                </g>
            </g>
        </g>
    </g>
</svg>