<?xml version="1.0" encoding="UTF-8"?>
<svg width="200px" height="90px" viewBox="0 0 200 90" version="1.1" xmlns="http://www.w3.org/2000/svg" xmlns:xlink="http://www.w3.org/1999/xlink">
    <!-- Generator: Sketch 51.3 (57544) - http://www.bohemiancoding.com/sketch -->
    <title>bfm-logo</title>
    <desc>Created with Sketch.</desc>
    <defs></defs>
    <g id="Page-1" stroke="none" stroke-width="1" fill="none" fill-rule="evenodd">
        <g id="bfm-home" transform="translate(-422.000000, -182.000000)" fill="#B4E6FF">
            <g id="bfm-logo" transform="translate(422.000000, 182.000000)">
                <g>
                    <polygon id="Fill-1" points="57.9083242 53.1253178 49.1866209 67.857 40.4646429 55.6270935 30.8852473 57.0012056 30.8852473 89.9824206 39.2039286 88.7891495 39.2039286 68.9283084 48.6322253 81.4685888 58.0596978 66.172514 58.0596978 86.0846636 66.3783791 84.8913925 66.3783791 51.9104579"></polygon>
                    <path d="M95.8703022,64.1966916 C95.8703022,59.360243 92.2909066,55.9116449 87.8540934,56.5480935 C83.4175549,57.1842617 79.8381593,61.6082804 79.8381593,66.444729 C79.8381593,71.2814579 83.4175549,74.7297757 87.8540934,74.0933271 C92.2909066,73.4571589 95.8703022,69.0331402 95.8703022,64.1966916 M104.793929,62.916785 C104.793929,72.4354766 97.1810165,81.2453832 87.8540934,82.5830467 C78.5271703,83.9209907 70.9142582,77.2433271 70.9142582,67.7246355 C70.9142582,58.2059439 78.5271703,49.3960374 87.8540934,48.0583738 C97.1810165,46.7204299 104.793929,53.3980935 104.793929,62.916785" id="Fill-2"></path>
                    <polygon id="Fill-4" points="117.649258 58.7576075 117.649258 77.5378879 109.330852 78.7308785 109.330852 45.7496636 118.254203 44.469757 130.102005 61.8593832 130.102005 42.7704112 138.420687 41.5774206 138.420687 74.5583551 129.49706 75.8385421"></polygon>
                    <polygon id="Fill-6" points="144.469313 40.7097757 165.946511 37.6293084 165.946511 45.6045421 152.78772 47.4917383 152.78772 51.8137009 163.930027 50.2158505 163.930027 58.1910841 152.78772 59.7889346 152.78772 64.5227664 165.946511 62.6352897 165.946511 70.6105234 144.469313 73.6909907"></polygon>
                    <polygon id="Fill-8" points="179.709258 57.8313364 167.96228 37.340215 177.188379 36.0168505 184.044973 48.3084393 191.00239 34.0354486 199.774643 32.7774112 188.02794 56.6383458 188.02794 67.4433925 179.709258 68.6366636"></polygon>
                    <path d="M39.3546978,36.1379439 L39.3546978,41.7978505 L44.144533,41.1106542 C46.2621154,40.8070093 47.6231044,39.4797196 47.6231044,37.7304673 C47.6231044,36.0325234 46.2621154,35.1473832 44.144533,35.451028 L39.3546978,36.1379439 Z M39.3546978,23.7378505 L39.3546978,29.243271 L43.4890385,28.6502804 C45.6066209,28.3466355 46.9676099,27.0709346 46.9676099,25.3729907 C46.9676099,23.7263551 45.6066209,22.841215 43.4890385,23.1448598 L39.3546978,23.7378505 Z M31.0362912,17.4703738 L44.2453571,15.5758879 C50.7992033,14.6357944 55.6390385,17.7490654 55.6390385,23.408972 C55.6390385,27.2164486 53.0678846,29.5401869 50.9000275,30.828785 C54.0258516,31.3068224 56.3450824,33.4951402 56.3450824,37.405514 C56.3450824,42.3964486 52.7151374,47.3419626 44.9005769,48.4628972 L31.0362912,50.4515888 L31.0362912,17.4703738 Z" id="Fill-10"></path>
                    <path d="M60.1248901,13.2981589 L68.4435714,12.1048879 L68.4435714,30.782271 C68.4435714,34.7442336 70.6617033,37.050028 74.0397253,36.5655421 C77.3169231,36.0956355 79.4847802,33.2119907 79.4847802,29.2503084 L79.4847802,10.5213364 L87.8034615,9.32806542 L87.8034615,28.211243 C87.8034615,37.1641402 82.2575824,43.8765701 73.8886264,45.0768505 C65.6202198,46.2628318 60.1248901,41.1339533 60.1248901,32.1813364 L60.1248901,13.2981589 Z" id="Fill-12"></path>
                    <path d="M101.919066,14.7642336 L101.919066,21.8133925 L106.002857,21.2274112 C108.523462,20.8660093 110.187473,19.1865701 110.187473,17.0254486 C110.187473,14.9675047 108.523462,13.8171308 106.002857,14.1785327 L101.919066,14.7642336 Z M93.6006593,8.49675701 L105.347363,6.81171028 C113.56522,5.63329907 119.01,9.17442056 119.01,15.7601215 C119.01,20.0307757 116.791868,23.6932991 113.010549,26.087972 L119.816593,37.7175981 L110.187473,39.0987196 L104.641593,28.8832991 L101.919066,29.2738598 L101.919066,40.2847009 L93.6006593,41.477972 L93.6006593,8.49675701 Z" id="Fill-14"></path>
                    <polygon id="Fill-16" points="132.671401 17.0937477 132.671401 35.874028 124.352995 37.0670187 124.352995 4.08580374 133.276346 2.8058972 145.124148 20.1955234 145.124148 1.1065514 152.838984 0.000196261682 153.320852 32.9973925 144.519478 34.1746822"></polygon>
                    <polygon id="Fill-18" points="160.729066 17.0277757 170.142253 15.6777757 170.142253 19.2486168 164.453242 20.0645047 164.453242 22.4145981 169.23978 21.7279626 169.23978 25.2988037 164.453242 25.9854393 164.453242 31.261514 160.729066 31.7956262"></polygon>
                    <path d="M181.99989,21.3723364 C181.99989,19.2064486 180.397143,17.6627103 178.41033,17.9478505 C176.422967,18.2327103 174.82022,20.213271 174.82022,22.3791589 C174.82022,24.5447664 176.422967,26.088785 178.41033,25.8036449 C180.397143,25.518785 181.99989,23.5382243 181.99989,21.3723364 M185.994121,20.7995327 C185.994121,25.0614953 182.586429,29.0063551 178.41033,29.6052336 C174.233681,30.2041121 170.824066,27.214486 170.824066,22.952243 C170.824066,18.6902804 174.233681,14.7451402 178.41033,14.1462617 C182.586429,13.5471028 185.994121,16.5372897 185.994121,20.7995327" id="Fill-20"></path>
                    <path d="M191.760412,15.9174953 L191.760412,19.0736636 L193.589258,18.811514 C194.718104,18.6494579 195.46261,17.8977757 195.46261,16.9299252 C195.46261,16.0083364 194.718104,15.4932897 193.589258,15.6550654 L191.760412,15.9174953 Z M188.036236,13.1112336 L193.295302,12.3567477 C196.975247,11.8288037 199.414533,13.4140374 199.414533,16.3630093 C199.414533,18.2757196 198.420027,19.9156262 196.72717,20.9877757 L199.774698,26.1951589 L195.46261,26.8136636 L192.979368,22.2396449 L191.760412,22.4143178 L191.760412,27.3446916 L188.036236,27.8788037 L188.036236,13.1112336 Z" id="Fill-22"></path>
                    <path d="M26.3442308,17.6635514 L26.3442308,22.3278505 L20.789011,22.3514019 L16.9601648,17.6758879 L26.3442308,17.6635514 Z M26.3442308,27.0393645 L26.3442308,31.7036636 L11.5068681,31.727215 L7.67802198,27.0517009 L26.3442308,27.0393645 Z M26.3442308,45.8130561 L26.3442308,50.4773551 L20.7571429,50.5009065 L16.9282967,45.8253925 L26.3442308,45.8130561 Z M26.3442308,36.4153178 L26.3442308,41.0796168 L3.82912088,41.1031682 L0,36.4276542 L26.3442308,36.4153178 Z" id="Combined-Shape"></path>
                </g>
            </g>
        </g>
    </g>
</svg>