<svg id="Layer_1" data-name="Layer 1" xmlns="http://www.w3.org/2000/svg" viewBox="0 0 347.74 203.63"><defs><style>.cls-1{fill:none;}.cls-2{fill:#3d3d3d;}.cls-3{fill:#fff;}</style></defs><path class="cls-1" d="M17,95.6v22c0,17,15.87,34.16,43.54,47.14,30.13,14.13,70.38,21.91,113.33,21.91s83.2-7.78,113.33-21.91c27.67-13,43.54-30.16,43.54-47.14v-22c-27.78,28.84-86.88,48.32-156.87,48.32S44.78,124.44,17,95.6Z"/><path class="cls-2" d="M303.6,0h-17V8.17c0,11.53-11.15,23.38-30.61,32.5-21.79,10.22-51,15.85-82.12,15.85s-60.32-5.63-82.11-15.85c-19.46-9.12-30.62-21-30.62-32.5V0h-17C15.63,15.63,0,36,0,57.88v59.7c0,48.25,76.37,86.05,173.87,86.05s173.87-37.8,173.87-86V57.88C347.74,36,332.11,15.63,303.6,0ZM84.54,56.07c24,11.25,55.73,17.45,89.33,17.45s65.33-6.2,89.34-17.45c21-9.86,34.42-22.85,38.81-37.31,18.62,11.67,28.72,25.31,28.72,39.12,0,17-15.87,34.16-43.54,47.13-30.13,14.13-70.38,21.91-113.33,21.91S90.67,119.14,60.54,105C32.87,92,17,74.86,17,57.88c0-13.81,10.1-27.45,28.73-39.12C50.11,33.22,63.51,46.2,84.54,56.07Zm246.2,61.51c0,17-15.87,34.16-43.54,47.14-30.13,14.13-70.38,21.91-113.33,21.91s-83.2-7.78-113.33-21.91C32.87,151.74,17,134.56,17,117.58v-22c27.78,28.84,86.88,48.32,156.87,48.32S303,124.44,330.74,95.6Z"/><path class="cls-3" d="M330.74,57.88c0-13.81-10.1-27.45-28.72-39.12-4.39,14.46-17.79,27.45-38.81,37.31-24,11.25-55.74,17.45-89.34,17.45s-65.33-6.2-89.33-17.45c-21-9.87-34.43-22.85-38.81-37.31C27.1,30.43,17,44.07,17,57.88,17,74.86,32.87,92,60.54,105c30.13,14.13,70.38,21.91,113.33,21.91s83.2-7.78,113.33-21.91C314.87,92,330.74,74.86,330.74,57.88Z"/></svg>